<?xml version="1.0" encoding="UTF-8" standalone="no"?>
<svg
   version="1.1"
   width="1.1046947in"
   height="0.47241807in"
   viewBox="0 0 79.538116 34.014165"
   id="svg22"
   sodipodi:docname="Cartão Fidelidade Lasac.svg"
   inkscape:export-filename="Cartão Fidelidade Lasac.svg"
   inkscape:export-xdpi="158.7997"
   inkscape:export-ydpi="158.7997"
   xmlns:inkscape="http://www.inkscape.org/namespaces/inkscape"
   xmlns:sodipodi="http://sodipodi.sourceforge.net/DTD/sodipodi-0.dtd"
   xmlns="http://www.w3.org/2000/svg"
   xmlns:svg="http://www.w3.org/2000/svg">
  <defs
     id="defs22" />
  <sodipodi:namedview
     id="namedview22"
     pagecolor="#ffffff"
     bordercolor="#000000"
     borderopacity="0.25"
     inkscape:showpageshadow="2"
     inkscape:pageopacity="0.0"
     inkscape:pagecheckerboard="0"
     inkscape:deskcolor="#d1d1d1"
     inkscape:document-units="in"
     inkscape:zoom="2.0335159"
     inkscape:cx="421.92932"
     inkscape:cy="253.01007"
     inkscape:window-width="2560"
     inkscape:window-height="1009"
     inkscape:window-x="-8"
     inkscape:window-y="-8"
     inkscape:window-maximized="1"
     inkscape:current-layer="Layer1000"
     inkscape:export-bgcolor="#ffffffff">
    <inkscape:page
       x="0"
       y="0"
       width="79.538116"
       height="34.014164"
       id="page1"
       margin="0"
       bleed="0" />
  </sodipodi:namedview>
  <g
     id="Layer1000"
     transform="matrix(1,0,0,0.87333917,22.093663,-156.65715)"
     inkscape:export-filename="CARTAO LOGO.png"
     inkscape:export-xdpi="124.49"
     inkscape:export-ydpi="124.49">
    <path
       d="m 10.543561,187.80133 v -3.02397 h 0.624828 v 2.66942 h 2.31511 v 0.35455 z m 3.167572,0 1.806512,-3.02397 h 0.685356 l 1.916853,3.02397 h -0.708831 l -0.544751,-0.91634 h -1.983106 l -0.510561,0.91634 z m 1.35517,-1.24163 h 1.604726 l -0.491012,-0.83841 c -0.148048,-0.25501 -0.259698,-0.46528 -0.33773,-0.63167 -0.0647,0.1975 -0.151319,0.39112 -0.259942,0.58231 z m 3.522233,1.24163 v -3.02397 h 1.766841 c 0.359651,0 0.647812,0.03 0.865631,0.0916 0.217328,0.0613 0.387297,0.15529 0.509907,0.28266 0.123918,0.12671 0.185509,0.25997 0.185509,0.39928 0,0.12898 -0.05505,0.25063 -0.16318,0.36473 -0.108541,0.11384 -0.273193,0.20607 -0.49322,0.27686 0.284726,0.0534 0.504017,0.14469 0.6564,0.27409 0.15312,0.12922 0.229843,0.28182 0.229843,0.45788 0,0.142 -0.04671,0.27392 -0.140114,0.39566 -0.093,0.12149 -0.208331,0.21549 -0.345009,0.28132 -0.137251,0.0658 -0.309183,0.11544 -0.515141,0.14949 -0.207513,0.0338 -0.46083,0.0504 -0.761016,0.0504 z m 0.624827,-1.75274 h 1.018096 c 0.276547,0 0.474571,-0.0119 0.593909,-0.0354 0.159172,-0.0302 0.27851,-0.0809 0.358342,-0.151 0.08048,-0.0704 0.121301,-0.15874 0.121301,-0.26493 0,-0.10072 -0.03754,-0.18908 -0.113367,-0.26509 -0.0746,-0.0771 -0.181829,-0.12965 -0.321371,-0.15806 -0.138968,-0.0282 -0.377808,-0.0421 -0.715619,-0.0421 h -0.941291 z m 0,1.39819 h 1.172933 c 0.201541,0 0.342555,-0.005 0.42484,-0.0149 0.142486,-0.0162 0.263542,-0.0436 0.360059,-0.0823 0.09627,-0.0388 0.17504,-0.0949 0.237531,-0.16882 0.06249,-0.0742 0.093,-0.15916 0.093,-0.25593 0,-0.11317 -0.04474,-0.2112 -0.135288,-0.2946 -0.09014,-0.0841 -0.214956,-0.14226 -0.375273,-0.17606 -0.159009,-0.0338 -0.389097,-0.0507 -0.688219,-0.0507 h -1.089584 z m 3.597484,-1.11729 c 0,-0.50109 0.210538,-0.89381 0.630062,-1.17791 0.42026,-0.28359 0.961494,-0.42492 1.625992,-0.42492 0.434983,0 0.826451,0.0669 1.17604,0.19977 0.348281,0.13317 0.614686,0.31898 0.798069,0.55751 0.182892,0.23827 0.274993,0.50832 0.274993,0.81041 0,0.30612 -0.09627,0.58097 -0.289225,0.82235 -0.19279,0.24189 -0.466065,0.42518 -0.819172,0.54877 -0.354006,0.12485 -0.735168,0.18665 -1.144386,0.18665 -0.443489,0 -0.839783,-0.0688 -1.189127,-0.20607 -0.348527,-0.13755 -0.613704,-0.32462 -0.793734,-0.56273 -0.17962,-0.23709 -0.269512,-0.48848 -0.269512,-0.75383 z m 0.64454,0.008 c 0,0.36363 0.152628,0.65042 0.457476,0.85935 0.304194,0.20901 0.687155,0.31385 1.147494,0.31385 0.469091,0 0.854016,-0.10535 1.157555,-0.31655 0.302476,-0.21145 0.453796,-0.51126 0.453796,-0.89995 0,-0.2455 -0.06494,-0.46032 -0.193935,-0.64335 -0.129562,-0.18287 -0.319325,-0.32529 -0.567817,-0.42568 -0.250209,-0.10072 -0.529864,-0.15125 -0.839947,-0.15125 -0.44079,0 -0.819989,0.0969 -1.137597,0.29107 -0.318017,0.19455 -0.477025,0.5185 -0.477025,0.97251 z m 4.675207,1.46461 v -3.02397 h 2.086985 c 0.420014,0 0.738685,0.0273 0.957077,0.0816 0.217818,0.0543 0.392613,0.14991 0.522666,0.28696 0.130462,0.13729 0.194998,0.28972 0.194998,0.45586 0,0.21456 -0.108623,0.39566 -0.324151,0.54263 -0.215856,0.14722 -0.549659,0.24004 -1.000755,0.27997 0.165388,0.0507 0.29037,0.10148 0.375681,0.15084 0.182238,0.10686 0.35417,0.24138 0.515633,0.40264 l 0.814345,0.82344 h -0.778356 l -0.622456,-0.62939 c -0.181174,-0.18195 -0.331431,-0.32076 -0.448315,-0.41728 -0.118438,-0.0963 -0.224117,-0.16344 -0.317117,-0.2022 -0.09235,-0.0379 -0.187718,-0.0645 -0.283581,-0.0803 -0.07043,-0.009 -0.18551,-0.0137 -0.346482,-0.0137 h -0.72159 v 1.34287 z m 0.624582,-1.68918 h 1.337421 c 0.285135,0 0.506389,-0.0192 0.666461,-0.0573 0.159908,-0.0372 0.281864,-0.0978 0.364067,-0.18144 0.08318,-0.083 0.124818,-0.17311 0.124818,-0.27123 0,-0.14293 -0.08008,-0.26123 -0.241211,-0.35321 -0.161054,-0.0925 -0.415434,-0.13796 -0.762815,-0.13796 h -1.488741 z m 3.595929,1.68918 1.806512,-3.02397 h 0.684947 l 1.917261,3.02397 h -0.709239 l -0.544833,-0.91635 h -1.98327 l -0.510561,0.91635 z m 1.354761,-1.24164 h 1.604726 l -0.491094,-0.83841 c -0.147557,-0.255 -0.259861,-0.46528 -0.33773,-0.63166 -0.06445,0.19749 -0.151565,0.39112 -0.259861,0.58231 z m 4.257319,1.24164 v -2.66934 h -1.552049 v -0.35463 h 3.729254 v 0.35463 h -1.552377 v 2.66934 z m 2.630101,-1.47184 c 0,-0.50109 0.210538,-0.89382 0.630062,-1.17791 0.420015,-0.28359 0.961248,-0.42492 1.625992,-0.42492 0.434737,0 0.826206,0.0669 1.17555,0.19976 0.348689,0.13318 0.615176,0.31899 0.798804,0.55751 0.182402,0.23828 0.274748,0.50833 0.274748,0.81042 0,0.30612 -0.09652,0.58096 -0.289225,0.82235 -0.193035,0.24188 -0.466311,0.42517 -0.819417,0.54876 -0.353761,0.12486 -0.735169,0.18665 -1.144141,0.18665 -0.443489,0 -0.839783,-0.0688 -1.189127,-0.20607 -0.348527,-0.13755 -0.613704,-0.32462 -0.793734,-0.56272 -0.179866,-0.2371 -0.269512,-0.48848 -0.269512,-0.75383 z m 0.644294,0.008 c 0,0.36363 0.152711,0.65041 0.457559,0.85934 0.304357,0.20902 0.687073,0.31386 1.147412,0.31386 0.469336,0 0.854016,-0.10535 1.1578,-0.31655 0.302231,-0.21145 0.45355,-0.51127 0.45355,-0.89995 0,-0.24551 -0.0647,-0.46032 -0.193852,-0.64335 -0.129399,-0.18287 -0.319162,-0.3253 -0.568063,-0.42568 -0.2498,-0.10073 -0.529455,-0.15126 -0.839783,-0.15126 -0.440627,0 -0.81999,0.0969 -1.137761,0.29108 -0.317853,0.19455 -0.476862,0.51849 -0.476862,0.97251 z m 1.131463,-1.74509 0.420669,-0.57895 h 0.763469 l -0.703841,0.57895 z m 3.543744,3.2097 v -3.02398 h 2.086985 c 0.42026,0 0.738686,0.0273 0.957159,0.0816 0.217737,0.0543 0.392531,0.14991 0.52283,0.28695 0.130299,0.1373 0.194998,0.28973 0.194998,0.45587 0,0.21456 -0.108623,0.39566 -0.324151,0.54262 -0.215856,0.14722 -0.549659,0.24004 -1.001001,0.27998 0.165389,0.0507 0.29037,0.10148 0.375682,0.15083 0.182238,0.10686 0.35417,0.24139 0.515632,0.40264 l 0.814346,0.82345 h -0.778356 l -0.622456,-0.6294 c -0.181175,-0.18194 -0.331186,-0.32075 -0.448315,-0.41727 -0.118602,-0.0963 -0.223872,-0.16344 -0.317117,-0.2022 -0.0921,-0.0379 -0.187473,-0.0645 -0.283582,-0.0803 -0.07018,-0.009 -0.185509,-0.0137 -0.346481,-0.0137 h -0.721345 v 1.34287 z m 0.624828,-1.68918 h 1.337421 c 0.28489,0 0.506144,-0.0192 0.666052,-0.0573 0.160072,-0.0372 0.282027,-0.0978 0.364312,-0.18143 0.0831,-0.083 0.124737,-0.17312 0.124737,-0.27123 0,-0.14293 -0.07983,-0.26123 -0.241212,-0.35321 -0.160971,-0.0925 -0.415188,-0.13797 -0.762815,-0.13797 h -1.488495 z m 4.216831,1.68918 v -3.02398 h 0.624827 v 3.02398 z m 1.531437,-1.47184 c 0,-0.5011 0.210375,-0.89382 0.630308,-1.17791 0.420014,-0.28359 0.96133,-0.42493 1.625828,-0.42493 0.434901,0 0.826369,0.0669 1.175795,0.19977 0.34869,0.13318 0.615176,0.31899 0.798314,0.55751 0.182892,0.23827 0.274747,0.50833 0.274747,0.81041 0,0.30612 -0.09578,0.58097 -0.289225,0.82235 -0.192626,0.24189 -0.465901,0.42518 -0.818762,0.54877 -0.353925,0.12485 -0.735577,0.18665 -1.144632,0.18665 -0.443407,0 -0.839538,-0.0688 -1.189291,-0.20607 -0.34828,-0.13755 -0.613213,-0.32462 -0.793488,-0.56272 -0.179866,-0.2371 -0.269594,-0.48849 -0.269594,-0.75383 z m 0.644622,0.008 c 0,0.36363 0.152628,0.65042 0.457476,0.85935 0.304439,0.20901 0.687155,0.31386 1.147494,0.31386 0.468846,0 0.85418,-0.10535 1.157719,-0.31655 0.30223,-0.21145 0.45355,-0.51127 0.45355,-0.89996 0,-0.2455 -0.0647,-0.46031 -0.194098,-0.64335 -0.129399,-0.18286 -0.318835,-0.32529 -0.567817,-0.42568 -0.249964,-0.10072 -0.529374,-0.15125 -0.839702,-0.15125 -0.440626,0 -0.820071,0.0969 -1.137842,0.29107 -0.317772,0.19455 -0.47678,0.5185 -0.47678,0.97251 z"
       style="fill:#1b1918;fill-rule:evenodd;stroke-width:0.829276"
       id="path13"
       inkscape:export-filename="lab.svg"
       inkscape:export-xdpi="362.091"
       inkscape:export-ydpi="362.091" />
    <path
       d="m 9.0589924,183.90044 v 20.39878 h 2.8790006 v 5.09183 H 4.2752444 v -25.49061 z m 7.9956516,12.69696 h -4.296007 v -1.40172 c 0,-1.61687 0.135533,-2.8628 0.402265,-3.74358 0.267304,-0.87582 0.809029,-1.64933 1.617894,-2.32042 0.808865,-0.67161 1.857797,-1.00993 3.154239,-1.00993 1.548369,0 2.717048,0.38162 3.502683,1.14403 0.7858,0.75753 1.25759,1.69195 1.416353,2.79856 0.159008,1.1062 0.239903,3.38895 0.239903,6.84264 v 10.48407 h -4.458288 v -1.86363 c -0.27851,0.75164 -0.642822,1.3105 -1.083613,1.68648 -0.441281,0.37599 -0.967873,0.56357 -1.583049,0.56357 -0.801177,0 -1.536263,-0.31108 -2.205833,-0.93417 -0.669569,-0.62856 -1.002554,-1.99287 -1.002554,-4.1036 v -1.71869 c 0,-1.56298 0.177903,-2.62638 0.534281,-3.19583 0.355724,-0.5692 1.23845,-1.22995 2.647114,-1.98176 1.505672,-0.82177 2.310529,-1.36978 2.418661,-1.65446 0.104615,-0.28477 0.158763,-0.85917 0.158763,-1.73458 0,-1.09064 -0.05807,-1.7994 -0.177821,-2.13234 -0.11623,-0.32756 -0.313436,-0.49437 -0.588429,-0.49437 -0.313436,0 -0.50688,0.13999 -0.580332,0.41929 -0.07762,0.27392 -0.11623,0.99866 -0.11623,2.16421 z m 1.462812,2.8628 c -0.739094,0.74618 -1.168679,1.36927 -1.28499,1.87432 -0.119502,0.50496 -0.177822,1.22474 -0.177822,2.17001 0,1.08475 0.05022,1.7778 0.154837,2.09451 0.100853,0.31697 0.305503,0.47251 0.611659,0.47251 0.290207,0 0.475962,-0.12351 0.564954,-0.37061 0.08883,-0.24685 0.131362,-0.89163 0.131362,-1.94418 z m 15.507899,-4.28074 h -4.040236 v -1.13352 c 0,-0.96688 -0.03861,-1.57374 -0.119993,-1.83144 -0.07762,-0.25769 -0.27851,-0.38683 -0.596281,-0.38683 -0.255117,0 -0.448724,0.11829 -0.576569,0.35455 -0.127681,0.2365 -0.193689,0.59089 -0.193689,1.0634 0,0.63914 0.03133,1.11207 0.09693,1.40743 0.06184,0.30049 0.255526,0.62848 0.576569,0.98269 0.317853,0.35976 0.975563,0.88095 1.969938,1.56315 1.327523,0.90239 2.194708,1.75072 2.608588,2.55104 0.414043,0.79486 0.623274,1.95495 0.623274,3.47505 0,1.70271 -0.158763,2.98656 -0.476126,3.85111 -0.317117,0.86456 -0.847472,1.53591 -1.590493,2.00321 -0.747028,0.46755 -1.64096,0.69817 -2.693654,0.69817 -1.161318,0 -2.159619,-0.25223 -2.984271,-0.75156 -0.827923,-0.50522 -1.396803,-1.18716 -1.706722,-2.04633 -0.309183,-0.85935 -0.464266,-2.15942 -0.464266,-3.8993 v -1.00454 h 4.063712 v 1.31562 c 0,1.11746 0.05047,1.84229 0.151074,2.18086 0.104452,0.33294 0.305339,0.49933 0.603561,0.49933 0.325051,0 0.549659,-0.11275 0.677504,-0.33815 0.127599,-0.22541 0.193444,-0.70356 0.193444,-1.42317 0,-0.99933 -0.08139,-1.62242 -0.247592,-1.87473 -0.174141,-0.25223 -1.060629,-0.99908 -2.659219,-2.23971 -1.342656,-1.04734 -2.163382,-1.99782 -2.457433,-2.85734 -0.293887,-0.85396 -0.441117,-1.8691 -0.441117,-3.04524 0,-1.67068 0.158599,-2.90064 0.476207,-3.69011 0.317281,-0.79486 0.855079,-1.40694 1.613477,-1.83665 0.758644,-0.42963 1.64096,-0.6447 2.643433,-0.6447 0.998547,0 1.846019,0.17715 2.542744,0.52632 0.700733,0.35446 1.234524,0.81655 1.609796,1.39642 0.371756,0.57483 0.600044,1.112 0.677667,1.60595 0.08114,0.49436 0.119747,1.26761 0.119747,2.31504 z m 5.658376,1.41794 h -4.295926 v -1.40172 c 0,-1.61687 0.135697,-2.8628 0.402593,-3.74358 0.266977,-0.87582 0.80911,-1.64933 1.617976,-2.32042 0.808783,-0.67161 1.857388,-1.00993 3.154157,-1.00993 1.54796,0 2.716475,0.38162 3.50252,1.14403 0.785554,0.75753 1.257753,1.69195 1.416107,2.79856 0.158763,1.1062 0.240148,3.38895 0.240148,6.84264 v 10.48407 h -4.458288 v -1.86363 c -0.27851,0.75164 -0.642577,1.3105 -1.083612,1.68648 -0.441527,0.37599 -0.967874,0.56357 -1.582805,0.56357 -0.801176,0 -1.536754,-0.31108 -2.206568,-0.93417 -0.669324,-0.62856 -1.002228,-1.99287 -1.002228,-4.1036 v -1.71869 c 0,-1.56298 0.178231,-2.62638 0.5342,-3.19583 0.356215,-0.5692 1.238531,-1.22995 2.647195,-1.98176 1.505345,-0.82177 2.310448,-1.36978 2.419071,-1.65446 0.10437,-0.28477 0.158354,-0.85917 0.158354,-1.73458 0,-1.09064 -0.05791,-1.7994 -0.178148,-2.13234 -0.115576,-0.32756 -0.312946,-0.49437 -0.587939,-0.49437 -0.313681,0 -0.507044,0.13999 -0.580577,0.41929 -0.07721,0.27392 -0.11623,0.99866 -0.11623,2.16421 z m 1.462894,2.8628 c -0.739095,0.74618 -1.168761,1.36927 -1.284582,1.87432 -0.120401,0.50496 -0.178312,1.22474 -0.178312,2.17001 0,1.08475 0.05022,1.7778 0.154674,2.09451 0.100852,0.31697 0.306156,0.47251 0.611659,0.47251 0.29037,0 0.47588,-0.12351 0.564954,-0.37061 0.08899,-0.24685 0.131607,-0.89163 0.131607,-1.94418 z m 16.29787,-3.05626 h -4.319237 v -2.41711 c 0,-0.8379 -0.05071,-1.40693 -0.150911,-1.70784 -0.100689,-0.30074 -0.286608,-0.45132 -0.557266,-0.45132 -0.271312,0 -0.453141,0.12914 -0.546141,0.39221 -0.09251,0.26333 -0.139214,0.84859 -0.139214,1.76157 v 9.85585 c 0,0.74686 0.06993,1.30504 0.20923,1.67565 0.135288,0.37061 0.340346,0.5586 0.611659,0.5586 0.313191,0 0.525938,-0.19338 0.63816,-0.57979 0.112549,-0.38684 0.166697,-1.11754 0.166697,-2.19692 v -2.47613 h 4.087023 c -0.0082,1.66505 -0.05047,2.91644 -0.131607,3.74922 -0.07762,0.83252 -0.332904,1.68649 -0.76257,2.56181 -0.42574,0.8754 -0.986932,1.53632 -1.675559,1.98201 -0.689118,0.44594 -1.540762,0.66572 -2.558367,0.66572 -1.292843,0 -2.322144,-0.30587 -3.080706,-0.92333 -0.754717,-0.61258 -1.292924,-1.47209 -1.606279,-2.57812 -0.313436,-1.11207 -0.472199,-2.68018 -0.472199,-4.7213 v -5.93479 c 0,-1.77779 0.127599,-3.11528 0.387051,-4.0175 0.255281,-0.90265 0.805103,-1.70835 1.648812,-2.41737 0.839784,-0.70876 1.861397,-1.06331 3.069173,-1.06331 1.195508,0 2.217529,0.35455 3.068846,1.05819 0.847718,0.70355 1.412672,1.58971 1.691427,2.66395 0.282682,1.07416 0.421978,2.59427 0.421978,4.56005 z"
       style="fill:#1b1918;fill-rule:evenodd;stroke-width:0.829276"
       id="path14" />
    <path
       d="m 3.0473466,208.75106 c -5.7200489,-1.20985 -10.0129485,-6.2847 -10.0129485,-12.36242 0,-6.07771 4.2928996,-11.15273 10.0129485,-12.36267 z"
       style="fill:#6e7071;fill-rule:evenodd;stroke-width:0.829276"
       id="path15" />
    <path
       d="m -22.093648,208.30378 c 5.720213,-1.20986 10.013112,-6.28488 10.013112,-12.36242 0,-6.07772 -4.292899,-11.15273 -10.013112,-12.36259 z"
       style="fill:#6e7071;fill-rule:evenodd;stroke-width:0.829276"
       id="path16" />
    <path
       d="m -2.6446468,182.48174 c -0.1576179,-2.52532 -11.5959172,-4.54181 -15.4626672,-1.76872 -3.990015,2.86095 -4.476528,7.98583 0.189027,10.97668 4.027313,2.5819 10.1093844,-0.41912 16.191701,-1.71533 1.22209075,-0.26038 2.12583754,0.44502 1.5672633,1.34203 -1.931494,3.10175 -8.4369332,5.66624 -13.7790103,8.53678 -3.021732,1.62309 -3.869204,3.3876 -1.297015,5.21904 2.431995,1.73155 8.2590311,1.53095 9.4021084,2.64639 0.4076635,0.3981 -4.3567814,1.32193 -5.4417024,2.44351 -0.338629,0.35026 -0.05619,1.02792 1.082795,1.47091 2.0753702,0.80688 3.9785632,0.13839 5.6919114,-1.11838 2.1075974,-1.546 2.7887816,-3.00052 1.8369396,-4.17532 -1.9707553,-2.43106 -5.8239279,-1.81243 -8.526743,-2.78427 -1.122057,-0.40331 -1.271659,-0.83597 -0.62311,-1.72617 1.191745,-1.63604 8.6623581,-5.93075 10.6984672,-8.08933 1.70173338,-1.80436 2.646541,-3.50733 1.18847326,-4.39938 -1.91439896,-1.1716 -3.62153076,-0.057 -6.52024396,0.44729 -5.9296885,1.03179 -9.7777895,0.77888 -10.5901725,-1.93855 -1.151175,-3.84885 1.09989,-5.97539 5.979256,-5.33086 2.0731621,0.2735 4.2097965,1.72508 6.4204549,1.71558 0.6460943,-0.36002 1.5257936,-1.11208 1.9922673,-1.7519 z"
       style="fill:#732113;fill-rule:evenodd;stroke-width:0.829276"
       id="path17" />
    <path
       d="m -14.80241,216.08362 c 0,0.11745 -0.02699,0.24415 -0.08359,0.38027 -0.05505,0.13596 -0.143222,0.26938 -0.263214,0.4008 -0.119093,0.13166 -0.271885,0.23785 -0.457476,0.31991 -0.186001,0.0814 -0.402838,0.12241 -0.650021,0.12241 -0.187064,0 -0.357687,-0.0178 -0.511706,-0.0546 -0.152874,-0.0369 -0.292742,-0.0942 -0.417806,-0.17202 -0.124736,-0.0773 -0.240557,-0.17984 -0.345827,-0.30655 -0.09341,-0.11585 -0.173486,-0.24415 -0.239739,-0.38734 -0.06625,-0.14293 -0.11623,-0.29595 -0.149357,-0.45804 -0.03288,-0.16252 -0.04908,-0.3348 -0.04908,-0.51691 0,-0.29552 0.04098,-0.56112 0.124573,-0.79469 0.0827,-0.23465 0.203096,-0.43509 0.357687,-0.60123 0.155492,-0.16613 0.336421,-0.29309 0.545242,-0.38027 0.208576,-0.0864 0.430893,-0.13032 0.666707,-0.13032 0.288162,0 0.543442,0.0593 0.768704,0.17807 0.224117,0.11838 0.396539,0.26577 0.516286,0.44031 0.119257,0.17471 0.179785,0.33925 0.179785,0.49504 0,0.0857 -0.03002,0.16025 -0.08768,0.22608 -0.05791,0.0652 -0.128336,0.0974 -0.211193,0.0974 -0.09194,0 -0.161217,-0.0233 -0.207022,-0.0674 -0.04589,-0.0453 -0.09742,-0.12359 -0.153774,-0.23399 -0.09431,-0.18219 -0.203995,-0.31831 -0.33094,-0.40945 -0.127436,-0.09 -0.283172,-0.13502 -0.469091,-0.13502 -0.296096,0 -0.53101,0.11636 -0.706704,0.34832 -0.175613,0.2329 -0.263133,0.56382 -0.263133,0.99194 0,0.28586 0.03877,0.52362 0.116639,0.71414 0.07697,0.18985 0.187064,0.33143 0.329223,0.4256 0.142731,0.0931 0.308774,0.14049 0.500009,0.14049 0.206858,0 0.381653,-0.0532 0.52463,-0.15966 0.143222,-0.10611 0.250863,-0.26173 0.323251,-0.46839 0.03092,-0.0968 0.06863,-0.17522 0.114513,-0.23718 0.0445,-0.0606 0.117293,-0.0916 0.217573,-0.0916 0.08572,0 0.159417,0.0309 0.220599,0.0936 0.06118,0.0615 0.09194,0.13839 0.09194,0.2302 z m 3.078089,-0.16774 c 0,0.20465 -0.03051,0.39205 -0.09169,0.56399 -0.06208,0.17252 -0.150911,0.32041 -0.267141,0.44392 -0.115984,0.12418 -0.25569,0.21818 -0.417316,0.28401 -0.161216,0.0661 -0.343291,0.0992 -0.544996,0.0992 -0.201378,0 -0.381653,-0.0331 -0.541316,-0.0999 -0.159417,-0.0667 -0.298468,-0.16294 -0.416252,-0.28763 -0.116638,-0.12418 -0.205958,-0.27139 -0.266486,-0.44114 -0.06004,-0.17043 -0.09079,-0.35783 -0.09079,-0.5634 0,-0.20716 0.03075,-0.39718 0.09194,-0.5697 0.062,-0.17194 0.149521,-0.31916 0.264687,-0.44182 0.114676,-0.12149 0.253972,-0.21549 0.416906,-0.28183 0.16318,-0.0658 0.343455,-0.099 0.541316,-0.099 0.200233,0 0.38198,0.0331 0.544996,0.0999 0.16318,0.0668 0.303295,0.16277 0.419525,0.2872 0.11672,0.12309 0.205304,0.27031 0.265831,0.44182 0.06028,0.17051 0.09079,0.35867 0.09079,0.56432 z m -0.664989,0 c 0,-0.27913 -0.05963,-0.49571 -0.177821,-0.65176 -0.119093,-0.15486 -0.278101,-0.23289 -0.478334,-0.23289 -0.130053,0 -0.243666,0.0343 -0.341983,0.10375 -0.0984,0.0692 -0.174303,0.17202 -0.227143,0.30705 -0.05423,0.1357 -0.08073,0.29393 -0.08073,0.47385 0,0.179 0.0265,0.33564 0.07893,0.46932 0.05268,0.13351 0.127436,0.23608 0.224853,0.30705 0.09799,0.071 0.21332,0.10618 0.346072,0.10618 0.200233,0 0.359241,-0.0778 0.478334,-0.2344 0.118193,-0.15579 0.177821,-0.37246 0.177821,-0.64815 z m 3.385636,0.0496 v 0.91029 c 0,0.14361 -0.031164,0.25156 -0.094309,0.32353 -0.062736,0.0721 -0.1463302,0.1077 -0.2487369,0.1077 -0.1004435,0 -0.1813383,-0.0356 -0.2434202,-0.1077 -0.062082,-0.072 -0.093246,-0.17992 -0.093246,-0.32353 v -1.09089 c 0,-0.17311 -0.00573,-0.30662 -0.017504,-0.40171 -0.011206,-0.0952 -0.041715,-0.17404 -0.092101,-0.23466 -0.050467,-0.0609 -0.1289898,-0.0916 -0.2381859,-0.0916 -0.216919,0 -0.359077,0.0769 -0.427948,0.23104 -0.06863,0.15353 -0.103307,0.37448 -0.103307,0.6621 v 0.92568 c 0,0.14226 -0.03157,0.2498 -0.09341,0.32261 -0.06208,0.0731 -0.144285,0.10862 -0.244974,0.10862 -0.100444,0 -0.181993,-0.0356 -0.245629,-0.10862 -0.0638,-0.0728 -0.09627,-0.18035 -0.09627,-0.32261 v -1.95923 c 0,-0.12872 0.02895,-0.22726 0.08597,-0.29401 0.05701,-0.0668 0.132507,-0.0999 0.225916,-0.0999 0.09104,0 0.166697,0.0316 0.226734,0.0942 0.06053,0.0625 0.09104,0.14882 0.09104,0.2593 v 0.0651 c 0.114266,-0.142 0.237531,-0.2466 0.368484,-0.31335 0.130462,-0.0667 0.2761379,-0.1003 0.4358006,-0.1003 0.1671061,0 0.3098374,0.0345 0.4294208,0.10282 0.1201561,0.0685 0.2186366,0.17202 0.2956052,0.31083 0.111404,-0.14041 0.2318054,-0.2439 0.3592412,-0.31175 0.1274357,-0.0674 0.2686947,-0.1019 0.4245949,-0.1019 0.1809293,0 0.3366659,0.0367 0.4671281,0.11072 0.1309529,0.0732 0.229188,0.17875 0.2938874,0.31563 0.056193,0.1235 0.084248,0.31873 0.084248,0.58433 v 1.33748 c 0,0.14361 -0.031409,0.25156 -0.094309,0.32353 -0.062736,0.0721 -0.1463303,0.1077 -0.2491459,0.1077 -0.099789,0 -0.181829,-0.0356 -0.2456287,-0.10862 -0.063636,-0.0728 -0.095618,-0.18035 -0.095618,-0.32261 v -1.15176 c 0,-0.14722 -0.00573,-0.26467 -0.018649,-0.35396 -0.012106,-0.0879 -0.044578,-0.16252 -0.098235,-0.22314 -0.052921,-0.0599 -0.1340611,-0.09 -0.2426023,-0.09 -0.087765,0 -0.1702142,0.0264 -0.2491459,0.0805 -0.077377,0.0532 -0.1386415,0.12494 -0.1828923,0.21574 -0.048504,0.11451 -0.072797,0.31924 -0.072797,0.61233 z m 2.8044043,-1.05777 v 0.0832 c 0.1240821,-0.15933 0.2537263,-0.27662 0.3877056,-0.35094 0.1342247,-0.0747 0.2855444,-0.11232 0.4553497,-0.11232 0.2045679,0 0.3912228,0.0539 0.5629911,0.16277 0.1710322,0.10888 0.3065656,0.26786 0.4061094,0.47705 0.099135,0.20893 0.1485387,0.45628 0.1485387,0.74214 0,0.21095 -0.028955,0.40441 -0.085966,0.58071 -0.057092,0.17631 -0.1364332,0.32437 -0.2364678,0.44452 -0.1001982,0.11997 -0.2186365,0.21128 -0.3550696,0.27551 -0.1364331,0.0642 -0.282927,0.0967 -0.4401359,0.0967 -0.1888634,0 -0.3476264,-0.0392 -0.4757165,-0.11787 -0.1283355,-0.078 -0.2506999,-0.19346 -0.3673388,-0.34581 v 1.02935 c 0,0.30141 -0.1057602,0.45174 -0.3180168,0.45174 -0.124164,0 -0.2066128,-0.0386 -0.2471828,-0.11636 -0.04057,-0.0778 -0.060528,-0.19094 -0.060528,-0.33967 v -2.95705 c 0,-0.13032 0.027647,-0.22768 0.082694,-0.29191 0.055048,-0.0643 0.1298078,-0.0968 0.2250165,-0.0968 0.093655,0 0.1707868,0.0331 0.2293516,0.099 0.058565,0.0672 0.088665,0.16193 0.088665,0.28611 z m 1.2957057,0.99623 c 0,-0.18102 -0.026338,-0.33572 -0.080322,-0.46512 -0.053003,-0.12914 -0.1262906,-0.22969 -0.220845,-0.29914 -0.095127,-0.0689 -0.1995784,-0.10324 -0.3138453,-0.10324 -0.182647,0 -0.3365841,0.0742 -0.4616478,0.22246 -0.1247365,0.14882 -0.1879636,0.36842 -0.1879636,0.65697 0,0.27208 0.062082,0.48445 0.1866549,0.63529 0.1248183,0.15167 0.2785101,0.22675 0.4629565,0.22675 0.1092774,0 0.2112751,-0.0331 0.3048479,-0.0994 0.093246,-0.0657 0.1686602,-0.16412 0.2257527,-0.29603 0.056111,-0.13301 0.084412,-0.29192 0.084412,-0.47856 z m 1.851908,0.415 v 0.57214 c 0,0.13889 -0.031573,0.24239 -0.094309,0.31175 -0.063145,0.0694 -0.1425677,0.10417 -0.2394941,0.10417 -0.094963,0 -0.1737314,-0.0347 -0.2350773,-0.10501 -0.061019,-0.0701 -0.091528,-0.17404 -0.091528,-0.31091 v -1.90719 c 0,-0.30705 0.1074779,-0.46125 0.3217793,-0.46125 0.1091956,0 0.188618,0.0359 0.2366313,0.10779 0.048913,0.0717 0.075251,0.17875 0.080077,0.31924 0.078932,-0.14049 0.1598263,-0.24752 0.2436656,-0.31924 0.083512,-0.0719 0.1945072,-0.10779 0.3331488,-0.10779 0.1390506,0 0.2740932,0.0359 0.4046371,0.10779 0.1308711,0.0717 0.1960613,0.16799 0.1960613,0.28679 0,0.0841 -0.026992,0.15234 -0.083594,0.20716 -0.055457,0.0547 -0.1155756,0.0815 -0.180275,0.0815 -0.023884,0 -0.082449,-0.0153 -0.1754491,-0.0462 -0.093655,-0.0311 -0.1752036,-0.0465 -0.2465284,-0.0465 -0.096926,0 -0.1752037,0.0264 -0.2375311,0.0789 -0.061182,0.0532 -0.1089502,0.13099 -0.143222,0.23466 -0.033945,0.10366 -0.057011,0.22675 -0.070343,0.36968 -0.012269,0.14293 -0.018649,0.31697 -0.018649,0.52237 z m 3.80663158,-0.40307 c 0,0.20465 -0.0304275,0.39205 -0.0916098,0.56399 -0.062082,0.17252 -0.15091075,0.32041 -0.26738603,0.44392 -0.11582093,0.12418 -0.25552584,0.21818 -0.41690628,0.28401 -0.16138043,0.0661 -0.34345486,0.0992 -0.54524175,0.0992 -0.20129612,0 -0.38181646,-0.0331 -0.54123382,-0.0999 -0.1599081,-0.0667 -0.2985497,-0.16294 -0.4162519,-0.28763 -0.1167207,-0.12418 -0.2059584,-0.27139 -0.2664863,-0.44114 -0.060528,-0.17043 -0.091283,-0.35783 -0.091283,-0.5634 0,-0.20716 0.030755,-0.39718 0.092182,-0.5697 0.062246,-0.17194 0.1497657,-0.31916 0.2644415,-0.44182 0.1154119,-0.12149 0.2544625,-0.21549 0.417397,-0.28183 0.16293452,-0.0658 0.34345486,-0.099 0.54123382,-0.099 0.20006921,0 0.38230722,0.0331 0.54524175,0.0999 0.16317992,0.0668 0.30263944,0.16277 0.41936011,0.2872 0.11663888,0.12309 0.20522226,0.27031 0.26534117,0.44182 0.0607733,0.17051 0.0912008,0.35867 0.0912008,0.56432 z m -0.66539779,0 c 0,-0.27913 -0.05921918,-0.49571 -0.17765753,-0.65176 -0.1192563,-0.15486 -0.27801931,-0.23289 -0.47808852,-0.23289 -0.12980778,0 -0.24366564,0.0343 -0.34190077,0.10375 -0.0984805,0.0692 -0.17438577,0.17202 -0.22738857,0.30705 -0.053984,0.1357 -0.080567,0.29393 -0.080567,0.47385 0,0.179 0.026583,0.33564 0.078523,0.46932 0.053085,0.13351 0.1274357,0.23608 0.22526185,0.30705 0.0978262,0.071 0.21364709,0.10618 0.34607229,0.10618 0.20006921,0 0.35883222,-0.0778 0.47808852,-0.2344 0.11843835,-0.15579 0.17765753,-0.37246 0.17765673,-0.64815 z m 3.38604451,0.0496 v 0.91029 c 0,0.14361 -0.031164,0.25156 -0.094309,0.32353 -0.062736,0.0721 -0.1460848,0.1077 -0.2489005,0.1077 -0.1000346,0 -0.1811746,-0.0356 -0.2432566,-0.1077 -0.062246,-0.072 -0.093409,-0.17992 -0.093409,-0.32353 v -1.09089 c 0,-0.17311 -0.00573,-0.30662 -0.017504,-0.40171 -0.01096,-0.0952 -0.04147,-0.17404 -0.091937,-0.23466 -0.050467,-0.0609 -0.1287445,-0.0916 -0.2383491,-0.0916 -0.2167552,0 -0.3588322,0.0769 -0.4277031,0.23104 -0.068871,0.15353 -0.1033064,0.37448 -0.1033064,0.6621 v 0.92568 c 0,0.14226 -0.031818,0.2498 -0.0939,0.32261 -0.061837,0.0731 -0.143631,0.10862 -0.2444836,0.10862 -0.1004436,0 -0.1820744,-0.0356 -0.2456287,-0.10862 -0.064045,-0.0728 -0.096272,-0.18035 -0.096272,-0.32261 v -1.95923 c 0,-0.12872 0.029119,-0.22726 0.08613,-0.29401 0.057092,-0.0668 0.132507,-0.0999 0.2256709,-0.0999 0.091283,0 0.166697,0.0316 0.226816,0.0942 0.060528,0.0625 0.091201,0.14882 0.091201,0.2593 v 0.0651 c 0.1141032,-0.142 0.237531,-0.2466 0.3682385,-0.31335 0.130544,-0.0667 0.2763835,-0.1003 0.4358008,-0.1003 0.1671061,0 0.3096738,0.0345 0.4294208,0.10282 0.1199925,0.0685 0.2186366,0.17202 0.2958505,0.31083 0.1114041,-0.14041 0.2311511,-0.2439 0.3585869,-0.31175 0.1276811,-0.0674 0.2691037,-0.1019 0.4248399,-0.1019 0.1811747,0 0.3368295,0.0367 0.4673735,0.11072 0.1309529,0.0732 0.2293516,0.17875 0.2938874,0.31563 0.056356,0.1235 0.084167,0.31873 0.084167,0.58433 v 1.33748 c 0,0.14361 -0.031573,0.25156 -0.094309,0.32353 -0.062655,0.0721 -0.1466575,0.1077 -0.2491459,0.1077 -0.099789,0 -0.1817472,-0.0356 -0.2456287,-0.10862 -0.063554,-0.0728 -0.095781,-0.18035 -0.095781,-0.32261 v -1.15176 c 0,-0.14722 -0.00573,-0.26467 -0.01824,-0.35396 -0.012678,-0.0879 -0.044987,-0.16252 -0.09848,-0.22314 -0.053085,-0.0599 -0.1339789,-0.09 -0.2425201,-0.09 -0.087765,0 -0.1704596,0.0264 -0.2491459,0.0805 -0.077459,0.0532 -0.1390505,0.12494 -0.1829741,0.21574 -0.048913,0.11451 -0.072797,0.31924 -0.072797,0.61233 z m 2.8539713,-1.05415 v 1.97975 c 0,0.13687 -0.031818,0.24079 -0.094309,0.31091 -0.063145,0.0703 -0.1425677,0.10501 -0.2390034,0.10501 -0.096763,0 -0.1756944,-0.0356 -0.2360587,-0.1077 -0.060528,-0.072 -0.090955,-0.17454 -0.090955,-0.30822 v -1.95924 c 0,-0.1362 0.030428,-0.23827 0.090955,-0.30662 0.060364,-0.0683 0.1392959,-0.10258 0.2360587,-0.10258 0.096436,0 0.1758581,0.0343 0.2390034,0.10258 0.062491,0.0684 0.094309,0.16462 0.094309,0.28611 z M 6.0025794,214.2039 c -0.091855,0 -0.1701324,-0.0288 -0.2354862,-0.0873 -0.065599,-0.0583 -0.097826,-0.14133 -0.097826,-0.24819 0,-0.0963 0.033127,-0.17581 0.1001982,-0.23828 0.066908,-0.0626 0.1447761,-0.0942 0.2331141,-0.0942 0.085966,0 0.1614623,0.0284 0.2277157,0.0847 0.066172,0.0573 0.099298,0.13982 0.099298,0.24778 0,0.10509 -0.032227,0.18732 -0.096926,0.24659 -0.064699,0.0589 -0.1403593,0.0889 -0.2300878,0.0889 z m 3.1417246,2.20944 c 0,0.1885 -0.044742,0.34993 -0.1330796,0.48454 -0.088665,0.13452 -0.220027,0.23625 -0.393922,0.30561 -0.173486,0.0695 -0.3846793,0.1035 -0.6335798,0.1035 -0.2377764,0 -0.441281,-0.0374 -0.6110045,-0.11291 -0.1693145,-0.0742 -0.2945418,-0.16841 -0.3755183,-0.28157 -0.08024,-0.11225 -0.1210557,-0.22541 -0.1210557,-0.33908 0,-0.0753 0.026092,-0.13957 0.078114,-0.19254 0.05104,-0.0543 0.1166388,-0.0807 0.1962248,-0.0807 0.069362,0 0.1222009,0.0181 0.1594992,0.0532 0.037216,0.035 0.072797,0.0837 0.1069871,0.14789 0.067808,0.12149 0.1487023,0.21347 0.2430113,0.2735 0.094309,0.0606 0.2232988,0.0904 0.3862334,0.0904 0.1324252,0 0.2412118,-0.0304 0.3252147,-0.0913 0.085312,-0.0611 0.1276811,-0.13099 0.1276811,-0.20985 0,-0.12065 -0.044087,-0.20834 -0.1318526,-0.26383 -0.088174,-0.055 -0.2333596,-0.10796 -0.4350647,-0.15849 -0.2272249,-0.0581 -0.4128165,-0.11989 -0.5560386,-0.18412 -0.1423223,-0.0642 -0.2563438,-0.14991 -0.3423097,-0.25518 -0.085557,-0.10509 -0.1284991,-0.23516 -0.1284991,-0.38868 0,-0.13772 0.03967,-0.26711 0.118193,-0.38978 0.079422,-0.12241 0.1963066,-0.2191 0.3511435,-0.29191 0.1536918,-0.0726 0.3396923,-0.10939 0.5585742,-0.10939 0.1710322,0 0.3250512,0.0181 0.4605845,0.0548 0.1364332,0.0367 0.251109,0.0863 0.3419008,0.14806 0.091692,0.0623 0.1613805,0.13099 0.2083305,0.20632 0.048013,0.0753 0.071979,0.14832 0.071979,0.22096 0,0.0778 -0.025683,0.1431 -0.07705,0.19245 -0.050385,0.0505 -0.1231824,0.0753 -0.2166735,0.0753 -0.067726,0 -0.1258816,-0.0196 -0.1736496,-0.0595 -0.047359,-0.0406 -0.1017523,-0.10055 -0.1636707,-0.18101 -0.049976,-0.0668 -0.1085412,-0.12082 -0.176267,-0.16076 -0.068217,-0.0405 -0.1599081,-0.0599 -0.276547,-0.0599 -0.1193381,0 -0.2187183,0.0264 -0.29765,0.0787 -0.078932,0.0532 -0.1186837,0.11906 -0.1186837,0.19792 0,0.0719 0.028955,0.13099 0.087111,0.17605 0.058565,0.0464 0.1365967,0.0847 0.2349136,0.11477 0.09848,0.0299 0.2341775,0.0669 0.4070092,0.11048 0.2055494,0.0514 0.3730644,0.114 0.5028722,0.18614 0.1300532,0.072 0.2287791,0.15672 0.2956869,0.25526 0.067071,0.0976 0.1008526,0.20851 0.1008526,0.3347 z m 2.691037,0 c 0,0.1885 -0.04474,0.34993 -0.133161,0.48454 -0.08858,0.13452 -0.219945,0.23625 -0.39384,0.30561 -0.173732,0.0695 -0.38468,0.1035 -0.633662,0.1035 -0.237695,0 -0.441445,-0.0374 -0.611005,-0.11291 -0.169314,-0.0742 -0.2945413,-0.16841 -0.3756814,-0.28157 -0.079995,-0.11225 -0.1206468,-0.22541 -0.1206468,-0.33908 0,-0.0753 0.025438,-0.13957 0.077868,-0.19254 0.051122,-0.0543 0.1167207,-0.0807 0.1960613,-0.0807 0.069525,0 0.1226099,0.0181 0.1596629,0.0532 0.0373,0.035 0.07288,0.0837 0.10666,0.14789 0.06797,0.12149 0.149111,0.21347 0.24342,0.2735 0.09431,0.0606 0.223217,0.0904 0.386234,0.0904 0.132425,0 0.240966,-0.0304 0.325214,-0.0913 0.08531,-0.0611 0.127436,-0.13099 0.127436,-0.20985 0,-0.12065 -0.04384,-0.20834 -0.131607,-0.26383 -0.08858,-0.055 -0.23336,-0.10796 -0.435147,-0.15849 -0.227388,-0.0581 -0.412734,-0.11989 -0.555956,-0.18412 -0.142323,-0.0642 -0.2568352,-0.14991 -0.3425558,-0.25518 C 9.6393239,215.59732 9.5963,215.46725 9.5963,215.31373 c 0,-0.13772 0.039916,-0.26711 0.1182748,-0.38978 0.079586,-0.12241 0.1962249,-0.2191 0.3508982,-0.29191 0.153937,-0.0726 0.340101,-0.10939 0.558574,-0.10939 0.171278,0 0.325215,0.0181 0.460748,0.0548 0.136433,0.0367 0.2507,0.0863 0.341737,0.14806 0.09186,0.0623 0.161217,0.13099 0.208576,0.20632 0.04777,0.0753 0.0719,0.14832 0.0719,0.22096 0,0.0778 -0.0256,0.1431 -0.07697,0.19245 -0.05063,0.0505 -0.123264,0.0753 -0.216428,0.0753 -0.06797,0 -0.126127,-0.0196 -0.173895,-0.0595 -0.0476,-0.0406 -0.101998,-0.10055 -0.16408,-0.18101 -0.04932,-0.0668 -0.108541,-0.12082 -0.17594,-0.16076 -0.06813,-0.0405 -0.159826,-0.0599 -0.276547,-0.0599 -0.119256,0 -0.218636,0.0264 -0.298058,0.0787 -0.07844,0.0532 -0.118357,0.11906 -0.118357,0.19792 0,0.0719 0.02912,0.13099 0.08703,0.17605 0.05881,0.0464 0.136597,0.0847 0.235077,0.11477 0.09832,0.0299 0.234014,0.0669 0.407091,0.11048 0.205304,0.0514 0.373065,0.114 0.502873,0.18614 0.130053,0.072 0.228533,0.15672 0.295687,0.25526 0.06683,0.0976 0.100852,0.20851 0.100852,0.3347 z m 3.038418,-0.49748 c 0,0.20465 -0.03051,0.39205 -0.09169,0.56399 -0.06208,0.17252 -0.150911,0.32041 -0.26755,0.44392 -0.115575,0.12418 -0.255689,0.21818 -0.416906,0.28401 -0.161462,0.0661 -0.343291,0.0992 -0.545487,0.0992 -0.200887,0 -0.381162,-0.0331 -0.540825,-0.0999 -0.159827,-0.0667 -0.298877,-0.16294 -0.416252,-0.28763 -0.116475,-0.12418 -0.206367,-0.27139 -0.266486,-0.44114 -0.06053,-0.17043 -0.0912,-0.35783 -0.0912,-0.5634 0,-0.20716 0.03067,-0.39718 0.09186,-0.5697 0.06208,-0.17194 0.149847,-0.31916 0.264769,-0.44182 0.115084,-0.12149 0.25438,-0.21549 0.417315,-0.28183 0.162771,-0.0658 0.343046,-0.099 0.540825,-0.099 0.200232,0 0.382552,0.0331 0.545487,0.0999 0.16318,0.0668 0.302885,0.16277 0.419524,0.2872 0.116884,0.12309 0.205304,0.27031 0.265341,0.44182 0.06077,0.17051 0.09128,0.35867 0.09128,0.56432 z m -0.665398,0 c 0,-0.27913 -0.05946,-0.49571 -0.177902,-0.65176 -0.119093,-0.15486 -0.278102,-0.23289 -0.478334,-0.23289 -0.129563,0 -0.243175,0.0343 -0.34141,0.10375 -0.09848,0.0692 -0.174877,0.17202 -0.227716,0.30705 -0.05349,0.1357 -0.08024,0.29393 -0.08024,0.47385 0,0.179 0.02675,0.33564 0.07852,0.46932 0.05309,0.13351 0.127436,0.23608 0.225262,0.30705 0.09758,0.071 0.21332,0.10618 0.345582,0.10618 0.200232,0 0.359241,-0.0778 0.478334,-0.2344 0.118438,-0.15579 0.177902,-0.37246 0.177902,-0.64815 z m 4.801743,0.5444 c 0,0.0847 -0.02437,0.17631 -0.07435,0.27299 -0.04875,0.0969 -0.123918,0.18943 -0.225016,0.27662 -0.100935,0.0875 -0.228534,0.15848 -0.382062,0.2117 -0.153365,0.0542 -0.326115,0.0807 -0.51915,0.0807 -0.408808,0 -0.728134,-0.1235 -0.957076,-0.37018 -0.230334,-0.2466 -0.345255,-0.57685 -0.345255,-0.99261 0,-0.2809 0.05292,-0.52909 0.158354,-0.74458 0.104861,-0.21616 0.257244,-0.38305 0.45535,-0.50026 0.199742,-0.11837 0.437273,-0.17714 0.713411,-0.17714 0.171278,0 0.328732,0.0256 0.471954,0.0778 0.142159,0.052 0.263869,0.11896 0.362758,0.20128 0.09938,0.0823 0.17594,0.16949 0.22788,0.26215 0.05284,0.0932 0.07942,0.17967 0.07942,0.26021 0,0.0821 -0.02961,0.15151 -0.08867,0.20876 -0.05963,0.0568 -0.130462,0.0847 -0.214874,0.0847 -0.05464,0 -0.100444,-0.0142 -0.136679,-0.0435 -0.03615,-0.0291 -0.07697,-0.0764 -0.122364,-0.14108 -0.0809,-0.1267 -0.165552,-0.22297 -0.253317,-0.28611 -0.08858,-0.0636 -0.200233,-0.0951 -0.335767,-0.0951 -0.195407,0 -0.353515,0.0789 -0.472853,0.23709 -0.119747,0.15782 -0.179212,0.37356 -0.179212,0.64748 0,0.1283 0.01562,0.24668 0.0463,0.35463 0.03051,0.10779 0.07435,0.20044 0.132916,0.27543 0.05816,0.0763 0.128499,0.13369 0.211193,0.1732 0.08179,0.0394 0.173077,0.0589 0.271312,0.0589 0.132671,0 0.245874,-0.0316 0.340183,-0.0948 0.09513,-0.0636 0.178476,-0.16092 0.251518,-0.29149 0.03975,-0.0769 0.08359,-0.13654 0.130953,-0.17967 0.0463,-0.0437 0.104206,-0.0658 0.171932,-0.0658 0.08114,0 0.148048,0.0325 0.201132,0.0958 0.05308,0.0636 0.08008,0.13099 0.08008,0.20288 z m 3.05355,-0.5444 c 0,0.20465 -0.03051,0.39205 -0.09194,0.56399 -0.06184,0.17252 -0.15042,0.32041 -0.26714,0.44392 -0.115821,0.12418 -0.255935,0.21818 -0.417315,0.28401 -0.160972,0.0661 -0.343046,0.0992 -0.545242,0.0992 -0.200887,0 -0.381162,-0.0331 -0.54107,-0.0999 -0.159418,-0.0667 -0.298714,-0.16294 -0.416007,-0.28763 -0.116721,-0.12418 -0.206367,-0.27139 -0.266486,-0.44114 -0.06053,-0.17043 -0.09104,-0.35783 -0.09104,-0.5634 0,-0.20716 0.03051,-0.39718 0.09169,-0.5697 0.06208,-0.17194 0.149602,-0.31916 0.264932,-0.44182 0.114676,-0.12149 0.253972,-0.21549 0.416907,-0.28183 0.162934,-0.0658 0.343209,-0.099 0.54107,-0.099 0.200233,0 0.382225,0.0331 0.545242,0.0999 0.163179,0.0668 0.303293,0.16277 0.419769,0.2872 0.116638,0.12309 0.205058,0.27031 0.265586,0.44182 0.06053,0.17051 0.09104,0.35867 0.09104,0.56432 z m -0.665479,0 c 0,-0.27913 -0.05938,-0.49571 -0.177576,-0.65176 -0.119338,-0.15486 -0.278346,-0.23289 -0.478579,-0.23289 -0.129808,0 -0.243012,0.0343 -0.341492,0.10375 -0.09864,0.0692 -0.174795,0.17202 -0.227634,0.30705 -0.05374,0.1357 -0.08024,0.29393 -0.08024,0.47385 0,0.179 0.0265,0.33564 0.07869,0.46932 0.05284,0.13351 0.127436,0.23608 0.225016,0.30705 0.09758,0.071 0.213157,0.10618 0.345664,0.10618 0.200233,0 0.359241,-0.0778 0.478579,-0.2344 0.118193,-0.15579 0.177576,-0.37246 0.177576,-0.64815 z m 3.38629,0.0496 v 0.91029 c 0,0.14361 -0.03157,0.25156 -0.09455,0.32353 -0.06315,0.0721 -0.146494,0.1077 -0.2489,0.1077 -0.100444,0 -0.181338,-0.0356 -0.243257,-0.1077 -0.062,-0.072 -0.09357,-0.17992 -0.09357,-0.32353 v -1.09089 c 0,-0.17311 -0.0057,-0.30662 -0.01734,-0.40171 -0.0108,-0.0952 -0.04122,-0.17404 -0.09194,-0.23466 -0.05022,-0.0609 -0.129153,-0.0916 -0.238349,-0.0916 -0.216755,0 -0.359078,0.0769 -0.427949,0.23104 -0.06838,0.15353 -0.103061,0.37448 -0.103061,0.6621 v 0.92568 c 0,0.14226 -0.03157,0.2498 -0.09365,0.32261 -0.06225,0.0731 -0.144286,0.10862 -0.245138,0.10862 -0.09979,0 -0.182075,-0.0356 -0.245711,-0.10862 -0.06355,-0.0728 -0.09578,-0.18035 -0.09578,-0.32261 v -1.95923 c 0,-0.12872 0.02871,-0.22726 0.08572,-0.29401 0.0575,-0.0668 0.132507,-0.0999 0.226161,-0.0999 0.0912,0 0.166207,0.0316 0.226734,0.0942 0.06012,0.0625 0.0912,0.14882 0.0912,0.2593 v 0.0651 c 0.114103,-0.142 0.237122,-0.2466 0.36783,-0.31335 0.130953,-0.0667 0.276792,-0.1003 0.436455,-0.1003 0.166861,0 0.309183,0.0345 0.429175,0.10282 0.119993,0.0685 0.218228,0.17202 0.295442,0.31083 0.111813,-0.14041 0.23156,-0.2439 0.358996,-0.31175 0.127436,-0.0674 0.269349,-0.1019 0.424595,-0.1019 0.18142,0 0.336666,0.0367 0.467619,0.11072 0.130462,0.0732 0.228942,0.17875 0.293642,0.31563 0.05619,0.1235 0.08441,0.31873 0.08441,0.58433 v 1.33748 c 0,0.14361 -0.03157,0.25156 -0.09431,0.32353 -0.06314,0.0721 -0.146657,0.1077 -0.249145,0.1077 -0.100199,0 -0.181748,-0.0356 -0.245629,-0.10862 -0.06355,-0.0728 -0.09603,-0.18035 -0.09603,-0.32261 v -1.15176 c 0,-0.14722 -0.0057,-0.26467 -0.0184,-0.35396 -0.01227,-0.0879 -0.04433,-0.16252 -0.09848,-0.22314 -0.05284,-0.0599 -0.133816,-0.09 -0.242357,-0.09 -0.08777,0 -0.170214,0.0264 -0.248737,0.0805 -0.07803,0.0532 -0.13905,0.12494 -0.183138,0.21574 -0.04867,0.11451 -0.07255,0.31924 -0.07255,0.61233 z m 5.564312,0.44787 c 0,0.1885 -0.04458,0.34993 -0.133161,0.48454 -0.08858,0.13452 -0.219946,0.23625 -0.393922,0.30561 -0.173405,0.0695 -0.38468,0.1035 -0.633825,0.1035 -0.23745,0 -0.440791,-0.0374 -0.610514,-0.11291 -0.16956,-0.0742 -0.294787,-0.16841 -0.375927,-0.28157 -0.08008,-0.11225 -0.120893,-0.22541 -0.120893,-0.33908 0,-0.0753 0.02593,-0.13957 0.07811,-0.19254 0.05129,-0.0543 0.116639,-0.0807 0.196307,-0.0807 0.06928,0 0.122119,0.0181 0.159417,0.0532 0.0373,0.035 0.0728,0.0837 0.106824,0.14789 0.06773,0.12149 0.148947,0.21347 0.243011,0.2735 0.09431,0.0606 0.223708,0.0904 0.386397,0.0904 0.132507,0 0.241048,-0.0304 0.32546,-0.0913 0.08515,-0.0611 0.127436,-0.13099 0.127436,-0.20985 0,-0.12065 -0.04384,-0.20834 -0.131771,-0.26383 -0.08817,-0.055 -0.233196,-0.10796 -0.435392,-0.15849 -0.22698,-0.0581 -0.412735,-0.11989 -0.555711,-0.18412 -0.142323,-0.0642 -0.256426,-0.14991 -0.342556,-0.25518 -0.08515,-0.10509 -0.12858,-0.23516 -0.12858,-0.38868 0,-0.13772 0.03992,-0.26711 0.118438,-0.38978 0.07942,-0.12241 0.196307,-0.2191 0.351143,-0.29191 0.153774,-0.0726 0.339693,-0.10939 0.558411,-0.10939 0.171032,0 0.324969,0.0181 0.460748,0.0548 0.136433,0.0367 0.2507,0.0863 0.341737,0.14806 0.09186,0.0623 0.161626,0.13099 0.208576,0.20632 0.04818,0.0753 0.07214,0.14832 0.07214,0.22096 0,0.0778 -0.02593,0.1431 -0.07697,0.19245 -0.05071,0.0505 -0.123264,0.0753 -0.216918,0.0753 -0.06781,0 -0.125882,-0.0196 -0.173977,-0.0595 -0.04711,-0.0406 -0.101753,-0.10055 -0.163589,-0.18101 -0.04973,-0.0668 -0.108296,-0.12082 -0.176104,-0.16076 -0.06822,-0.0405 -0.159908,-0.0599 -0.276792,-0.0599 -0.119093,0 -0.218228,0.0264 -0.297405,0.0787 -0.07893,0.0532 -0.118847,0.11906 -0.118847,0.19792 0,0.0719 0.02895,0.13099 0.08711,0.17605 0.05873,0.0464 0.136597,0.0847 0.234832,0.11477 0.09848,0.0299 0.234505,0.0669 0.407336,0.11048 0.205223,0.0514 0.372983,0.114 0.502873,0.18614 0.130053,0.072 0.228697,0.15672 0.295605,0.25526 0.06715,0.0976 0.100934,0.20851 0.100934,0.3347 z m 2.277975,0.50774 v -0.0884 c -0.0791,0.10366 -0.16228,0.19093 -0.249964,0.26147 -0.08662,0.0699 -0.181829,0.12242 -0.28538,0.15672 -0.10347,0.0342 -0.2206,0.0514 -0.353107,0.0514 -0.160481,0 -0.303703,-0.0345 -0.430484,-0.10299 -0.126536,-0.0684 -0.225017,-0.1626 -0.294787,-0.28342 -0.08179,-0.14562 -0.123265,-0.35464 -0.123265,-0.62763 v -1.35641 c 0,-0.13771 0.0301,-0.23987 0.08973,-0.30746 0.05946,-0.0674 0.139051,-0.10174 0.237531,-0.10174 0.09938,0 0.180275,0.0343 0.241457,0.10258 0.06118,0.0684 0.09194,0.17042 0.09194,0.30662 v 1.09628 c 0,0.15806 0.01292,0.29174 0.03852,0.39944 0.02617,0.10804 0.07239,0.19279 0.139051,0.25366 0.0674,0.0609 0.15819,0.0916 0.273275,0.0916 0.11165,0 0.216919,-0.0343 0.3154,-0.10257 0.09823,-0.0684 0.170214,-0.15832 0.215855,-0.26879 0.03722,-0.0969 0.05521,-0.30924 0.05521,-0.6373 v -0.83228 c 0,-0.1362 0.03051,-0.23827 0.0921,-0.30662 0.06184,-0.0683 0.142404,-0.10258 0.240639,-0.10258 0.09848,0 0.177821,0.0343 0.237531,0.10174 0.06053,0.0676 0.09014,0.16975 0.09014,0.30746 v 1.98404 c 0,0.13032 -0.02896,0.22768 -0.08597,0.29376 -0.05791,0.0649 -0.131608,0.0974 -0.22289,0.0974 -0.08989,0 -0.164898,-0.034 -0.224117,-0.1019 -0.05881,-0.0673 -0.08842,-0.16252 -0.08842,-0.28401 z"
       style="fill:#1b1918;fill-rule:evenodd;stroke-width:0.829276"
       id="path18" />
    <path
       d="m 35.580759,216.9227 c -0.160563,0.12847 -0.3154,0.22448 -0.464102,0.28872 -0.149766,0.0643 -0.317526,0.0956 -0.503036,0.0956 -0.16956,0 -0.319325,-0.0347 -0.447906,-0.10417 -0.128254,-0.0694 -0.227634,-0.16294 -0.296914,-0.28174 -0.06936,-0.11905 -0.103961,-0.24735 -0.103961,-0.38616 0,-0.18783 0.05701,-0.34698 0.171687,-0.47865 0.115166,-0.13301 0.273111,-0.22087 0.474407,-0.26644 0.04123,-0.0102 0.145595,-0.0327 0.311883,-0.0676 0.166206,-0.035 0.309183,-0.0668 0.427866,-0.0968 0.118193,-0.0293 0.247183,-0.0645 0.386479,-0.10618 -0.0083,-0.18077 -0.04302,-0.31336 -0.105106,-0.39743 -0.06315,-0.0848 -0.191235,-0.12671 -0.387296,-0.12671 -0.168252,0 -0.294542,0.0241 -0.378954,0.0728 -0.08531,0.0481 -0.157945,0.12065 -0.218718,0.21852 -0.06028,0.0967 -0.103307,0.15983 -0.127845,0.19178 -0.02609,0.0307 -0.07959,0.0462 -0.161626,0.0462 -0.07435,0 -0.139051,-0.0251 -0.192544,-0.0744 -0.05398,-0.0491 -0.08139,-0.11224 -0.08139,-0.18959 0,-0.12082 0.04172,-0.23802 0.123265,-0.35169 0.08294,-0.11401 0.210948,-0.20717 0.385579,-0.2809 0.174794,-0.0736 0.392368,-0.11039 0.652883,-0.11039 0.29037,0 0.519558,0.0358 0.686255,0.10686 0.166207,0.0712 0.283745,0.18345 0.352207,0.3374 0.06863,0.15428 0.103552,0.35782 0.103552,0.61232 0,0.16093 -6.54e-4,0.29713 -0.0016,0.4092 -8.18e-4,0.1125 -0.0016,0.2371 -0.0033,0.3744 0,0.12855 0.02037,0.26265 0.06184,0.40239 0.04163,0.13889 0.06118,0.2286 0.06118,0.2687 0,0.0704 -0.03141,0.13461 -0.09496,0.19212 -0.0647,0.0572 -0.136679,0.0861 -0.217573,0.0861 -0.06781,0 -0.134879,-0.0324 -0.201297,-0.0983 -0.06625,-0.0658 -0.136678,-0.16076 -0.211029,-0.28603 z m -0.0436,-0.99244 c -0.09676,0.0367 -0.237531,0.0763 -0.423123,0.11662 -0.184446,0.041 -0.3127,0.0716 -0.383779,0.0906 -0.07124,0.0198 -0.139051,0.0573 -0.20375,0.11291 -0.06429,0.0568 -0.09668,0.13478 -0.09668,0.23584 0,0.10341 0.03812,0.19178 0.114267,0.26442 0.07517,0.0726 0.174549,0.10955 0.297813,0.10955 0.130462,0 0.251764,-0.03 0.36145,-0.089 0.110913,-0.0599 0.19189,-0.1362 0.244484,-0.23045 0.05922,-0.10367 0.08932,-0.27451 0.08932,-0.51261 z m 4.692465,0.4831 c 0,0.1885 -0.04474,0.34993 -0.13357,0.48454 -0.08817,0.13452 -0.219945,0.23625 -0.393922,0.30561 -0.173241,0.0695 -0.384679,0.1035 -0.633334,0.1035 -0.237531,0 -0.441281,-0.0374 -0.611005,-0.11291 -0.16956,-0.0742 -0.294542,-0.16841 -0.375518,-0.28157 -0.08049,-0.11225 -0.120647,-0.22541 -0.120647,-0.33908 0,-0.0753 0.02552,-0.13957 0.07746,-0.19254 0.05153,-0.0543 0.116638,-0.0807 0.196306,-0.0807 0.06969,0 0.12261,0.0181 0.159827,0.0532 0.0373,0.035 0.07288,0.0837 0.106659,0.14789 0.06773,0.12149 0.148703,0.21347 0.243175,0.2735 0.09431,0.0606 0.223299,0.0904 0.386479,0.0904 0.132425,0 0.240967,-0.0304 0.324969,-0.0913 0.08515,-0.0611 0.127436,-0.13099 0.127436,-0.20985 0,-0.12065 -0.0436,-0.20834 -0.131362,-0.26383 -0.08858,-0.055 -0.233605,-0.10796 -0.435146,-0.15849 -0.227634,-0.0581 -0.412735,-0.11989 -0.555957,-0.18412 -0.142731,-0.0642 -0.256835,-0.14991 -0.3428,-0.25518 -0.08531,-0.10509 -0.128091,-0.23516 -0.128091,-0.38868 0,-0.13772 0.03975,-0.26711 0.118275,-0.38978 0.07934,-0.12241 0.196225,-0.2191 0.350653,-0.29191 0.153774,-0.0726 0.340347,-0.10939 0.55882,-0.10939 0.171114,0 0.325214,0.0181 0.460829,0.0548 0.136352,0.0367 0.250619,0.0863 0.341656,0.14806 0.09186,0.0623 0.161217,0.13099 0.208576,0.20632 0.04777,0.0753 0.07173,0.14832 0.07173,0.22096 0,0.0778 -0.02544,0.1431 -0.07697,0.19245 -0.05047,0.0505 -0.123264,0.0753 -0.21651,0.0753 -0.06822,0 -0.125882,-0.0196 -0.17365,-0.0595 -0.0476,-0.0406 -0.101997,-0.10055 -0.164079,-0.18101 -0.04957,-0.0668 -0.108542,-0.12082 -0.176349,-0.16076 -0.06797,-0.0405 -0.159417,-0.0599 -0.276138,-0.0599 -0.119256,0 -0.218637,0.0264 -0.298059,0.0787 -0.07869,0.0532 -0.118357,0.11906 -0.118357,0.19792 0,0.0719 0.02912,0.13099 0.08703,0.17605 0.05881,0.0464 0.136596,0.0847 0.235077,0.11477 0.09832,0.0299 0.23385,0.0669 0.407091,0.11048 0.205058,0.0514 0.373064,0.114 0.502872,0.18614 0.130053,0.072 0.228288,0.15672 0.295687,0.25526 0.06666,0.0976 0.100852,0.20851 0.100852,0.3347 z m 2.233316,0.50934 c -0.160563,0.12847 -0.315399,0.22448 -0.464347,0.28872 -0.14952,0.0643 -0.317772,0.0956 -0.503036,0.0956 -0.169805,0 -0.319162,-0.0347 -0.447416,-0.10417 -0.12858,-0.0694 -0.227879,-0.16294 -0.297241,-0.28174 -0.06969,-0.11905 -0.104369,-0.24735 -0.104369,-0.38616 0,-0.18783 0.05701,-0.34698 0.172177,-0.47865 0.115167,-0.13301 0.27303,-0.22087 0.473917,-0.26644 0.04171,-0.0102 0.14584,-0.0327 0.312128,-0.0676 0.166206,-0.035 0.309428,-0.0668 0.427621,-0.0968 0.118275,-0.0293 0.247674,-0.0645 0.386724,-0.10618 -0.0086,-0.18077 -0.04327,-0.31336 -0.105269,-0.39743 -0.06274,-0.0848 -0.191318,-0.12671 -0.387379,-0.12671 -0.167515,0 -0.294296,0.0241 -0.378708,0.0728 -0.08531,0.0481 -0.157945,0.12065 -0.218473,0.21852 -0.06053,0.0967 -0.10347,0.15983 -0.128254,0.19178 -0.02568,0.0307 -0.07967,0.0462 -0.161217,0.0462 -0.07484,0 -0.13905,-0.0251 -0.193034,-0.0744 -0.05349,-0.0491 -0.08114,-0.11224 -0.08114,-0.18959 0,-0.12082 0.04147,-0.23802 0.12351,-0.35169 0.08245,-0.11401 0.210703,-0.20717 0.385743,-0.2809 0.17414,-0.0736 0.391713,-0.11039 0.652474,-0.11039 0.290616,0 0.519804,0.0358 0.68601,0.10686 0.166452,0.0712 0.283827,0.18345 0.352698,0.3374 0.06862,0.15428 0.103306,0.35782 0.103306,0.61232 0,0.16093 -8.18e-4,0.29713 -0.0016,0.4092 -8.18e-4,0.1125 -0.0016,0.2371 -0.0033,0.3744 0,0.12855 0.02086,0.26265 0.06208,0.40239 0.04147,0.13889 0.06118,0.2286 0.06118,0.2687 0,0.0704 -0.03157,0.13461 -0.09521,0.19212 -0.06421,0.0572 -0.136597,0.0861 -0.217573,0.0861 -0.06773,0 -0.134634,-0.0324 -0.200888,-0.0983 -0.06617,-0.0658 -0.136596,-0.16076 -0.210947,-0.28603 z m -0.04384,-0.99244 c -0.09676,0.0367 -0.237367,0.0763 -0.422877,0.11662 -0.184447,0.041 -0.312782,0.0716 -0.38427,0.0906 -0.07083,0.0198 -0.13856,0.0573 -0.203096,0.11291 -0.0647,0.0568 -0.09693,0.13478 -0.09693,0.23584 0,0.10341 0.03771,0.19178 0.114103,0.26442 0.07541,0.0726 0.174795,0.10955 0.297977,0.10955 0.130544,0 0.251354,-0.03 0.36145,-0.089 0.110995,-0.0599 0.192135,-0.1362 0.244156,-0.23045 0.05938,-0.10367 0.08948,-0.27451 0.08948,-0.51261 z m 3.038173,0.99084 v -0.0884 c -0.07918,0.10366 -0.162117,0.19093 -0.2498,0.26147 -0.08711,0.0699 -0.181829,0.12242 -0.285381,0.15672 -0.103225,0.0342 -0.221009,0.0514 -0.353516,0.0514 -0.160562,0 -0.303294,-0.0345 -0.430075,-0.10299 -0.126536,-0.0684 -0.225262,-0.1626 -0.294542,-0.28342 -0.0822,-0.14562 -0.123264,-0.35464 -0.123264,-0.62763 v -1.35641 c 0,-0.13771 0.02961,-0.23987 0.08924,-0.30746 0.05946,-0.0674 0.13905,-0.10174 0.237531,-0.10174 0.09938,0 0.180275,0.0343 0.241702,0.10258 0.06118,0.0684 0.09194,0.17042 0.09194,0.30662 v 1.09628 c 0,0.15806 0.01317,0.29174 0.03861,0.39944 0.0256,0.10804 0.07231,0.19279 0.139215,0.25366 0.06715,0.0609 0.157945,0.0916 0.273029,0.0916 0.11165,0 0.216756,-0.0343 0.314991,-0.10257 0.09864,-0.0684 0.170623,-0.15832 0.216019,-0.26879 0.0373,-0.0969 0.05546,-0.30924 0.05546,-0.6373 v -0.83228 c 0,-0.1362 0.03051,-0.23827 0.09194,-0.30662 0.06184,-0.0683 0.142568,-0.10258 0.241049,-0.10258 0.09824,0 0.177575,0.0343 0.237285,0.10174 0.06004,0.0676 0.09014,0.16975 0.09014,0.30746 v 1.98404 c 0,0.13032 -0.0292,0.22768 -0.08621,0.29376 -0.05791,0.0649 -0.131362,0.0974 -0.222645,0.0974 -0.09014,0 -0.165143,-0.034 -0.224117,-0.1019 -0.05857,-0.0673 -0.08858,-0.16252 -0.08858,-0.28401 z m -0.485614,-3.3797 h 0.327669 c 0.08294,0 0.124409,0.0126 0.124409,0.0376 0,0.0129 -0.04564,0.0674 -0.135779,0.16277 -0.09104,0.0949 -0.182238,0.18556 -0.274584,0.27283 -0.09235,0.0868 -0.156799,0.13974 -0.192135,0.15781 -0.0921,0.0488 -0.19099,0.0726 -0.296259,0.0726 -0.06952,0 -0.104206,-0.0205 -0.104206,-0.0625 0,-0.0282 0.02037,-0.078 0.06274,-0.14789 l 0.109441,-0.20985 c 0.0638,-0.12242 0.118193,-0.20044 0.165307,-0.23399 0.04719,-0.0331 0.118438,-0.0494 0.213401,-0.0494 z m 3.579489,3.37449 v -0.0678 c -0.08834,0.10577 -0.176349,0.19136 -0.262969,0.25719 -0.08597,0.0658 -0.180275,0.11636 -0.281128,0.15083 -0.101343,0.0343 -0.211439,0.051 -0.331186,0.051 -0.157863,0 -0.304602,-0.0347 -0.439318,-0.10417 -0.135042,-0.0694 -0.252581,-0.16765 -0.351061,-0.29712 -0.09832,-0.12873 -0.172668,-0.28015 -0.224199,-0.45376 -0.05038,-0.17404 -0.07582,-0.36254 -0.07582,-0.56424 0,-0.42837 0.100852,-0.76224 0.302639,-1.00118 0.201787,-0.2392 0.468191,-0.35892 0.797823,-0.35892 0.191317,0 0.351634,0.0345 0.482342,0.1019 0.130871,0.0678 0.259206,0.17202 0.38288,0.31335 v -1.01127 c 0,-0.14049 0.02765,-0.2466 0.08114,-0.31832 0.05464,-0.0719 0.131607,-0.1082 0.231805,-0.1082 0.100035,0 0.177003,0.0335 0.231887,0.0994 0.05349,0.0661 0.08089,0.16344 0.08089,0.29216 v 3.01927 c 0,0.13032 -0.02896,0.22885 -0.08703,0.29376 -0.05857,0.0649 -0.134061,0.0974 -0.225753,0.0974 -0.09014,0 -0.165552,-0.034 -0.224117,-0.1019 -0.05873,-0.0673 -0.08883,-0.16412 -0.08883,-0.28922 z m -1.300777,-1.00522 c 0,0.18556 0.02814,0.34337 0.08384,0.47453 0.05521,0.1299 0.131525,0.22768 0.228943,0.29334 0.09668,0.0662 0.20285,0.0994 0.317117,0.0994 0.116475,0 0.222644,-0.0315 0.318425,-0.094 0.09627,-0.0626 0.173077,-0.15848 0.230334,-0.28762 0.05701,-0.13007 0.08597,-0.2915 0.08597,-0.48563 0,-0.18144 -0.02896,-0.33815 -0.08597,-0.46914 -0.05726,-0.13184 -0.135125,-0.23239 -0.23246,-0.30184 -0.09766,-0.0689 -0.20465,-0.10324 -0.321371,-0.10324 -0.12081,0 -0.228942,0.035 -0.324151,0.10593 -0.09537,0.0713 -0.168824,0.17295 -0.221663,0.30596 -0.05243,0.13368 -0.07901,0.28762 -0.07901,0.46233 z m 4.437675,0.17362 H 50.39324 c 0.0016,0.15621 0.03223,0.29284 0.09079,0.41189 0.05897,0.11922 0.137742,0.20826 0.234832,0.2682 0.09783,0.0609 0.206367,0.0909 0.323497,0.0909 0.07967,0 0.151811,-0.01 0.217164,-0.0293 0.06625,-0.0189 0.128908,-0.0489 0.190091,-0.09 0.06208,-0.041 0.118274,-0.0848 0.169805,-0.13158 0.05219,-0.0474 0.119093,-0.11048 0.201787,-0.19103 0.03394,-0.0299 0.08196,-0.0455 0.144939,-0.0455 0.06797,0 0.123265,0.0198 0.165389,0.0583 0.04139,0.0377 0.06314,0.0925 0.06314,0.1626 0,0.0616 -0.02413,0.13343 -0.07043,0.21658 -0.0476,0.0821 -0.117784,0.16185 -0.212911,0.23718 -0.09431,0.0762 -0.212747,0.13974 -0.355724,0.18934 -0.143222,0.0505 -0.307956,0.0751 -0.493302,0.0751 -0.425004,0 -0.75529,-0.12552 -0.991103,-0.37649 -0.235977,-0.25089 -0.353107,-0.59106 -0.353107,-1.02094 0,-0.20178 0.02895,-0.39028 0.0867,-0.56315 0.05807,-0.17311 0.142977,-0.3215 0.254135,-0.44543 0.11165,-0.12309 0.248737,-0.21852 0.411672,-0.2841 0.16318,-0.0662 0.344763,-0.0994 0.542788,-0.0994 0.259288,0 0.480951,0.0563 0.665398,0.16924 0.185591,0.113 0.323497,0.25879 0.416333,0.43871 0.09186,0.17875 0.137906,0.36136 0.137906,0.54692 0,0.17227 -0.0476,0.28451 -0.142977,0.33563 -0.09521,0.0505 -0.229188,0.0763 -0.40202,0.0763 z m -1.294806,-0.39028 h 1.199434 c -0.01562,-0.23399 -0.07681,-0.4087 -0.182729,-0.52481 -0.105678,-0.11586 -0.244729,-0.17404 -0.417969,-0.17404 -0.165143,0 -0.300022,0.0594 -0.406192,0.17656 -0.105923,0.11788 -0.170214,0.29192 -0.192544,0.52229 z m 2.617095,-0.043 -0.07787,-1.20019 c -0.01382,-0.23399 -0.02151,-0.40264 -0.02151,-0.50454 0,-0.1389 0.03468,-0.2466 0.105024,-0.32437 0.07043,-0.078 0.162362,-0.11678 0.276793,-0.11678 0.138886,0 0.231151,0.0498 0.277692,0.14923 0.04736,0.0994 0.07043,0.24298 0.07043,0.42963 0,0.11048 -0.0057,0.22281 -0.01652,0.33681 l -0.10437,1.23542 c -0.01137,0.14722 -0.03533,0.26039 -0.0728,0.33925 -0.03624,0.0778 -0.09742,0.11729 -0.183546,0.11729 -0.08711,0 -0.14723,-0.0379 -0.18142,-0.11409 -0.03313,-0.076 -0.05767,-0.19145 -0.0719,-0.34766 z m 0.267959,1.65134 c -0.09824,0 -0.184447,-0.0336 -0.257244,-0.0995 -0.07345,-0.066 -0.110095,-0.15865 -0.110095,-0.2777 0,-0.1035 0.03468,-0.19187 0.105024,-0.26442 0.07043,-0.0726 0.155737,-0.10888 0.257325,-0.10888 0.101916,0 0.188128,0.0363 0.259861,0.10888 0.07239,0.0726 0.107724,0.16092 0.107724,0.26442 0,0.11745 -0.03623,0.2101 -0.108378,0.27686 -0.0728,0.0667 -0.157291,0.1003 -0.254217,0.1003 z"
       style="fill:#1b1918;fill-rule:evenodd;stroke-width:0.829276"
       id="path19" />
  </g>
</svg>
